<mxfile host="65bd71144e">
    <diagram id="KW9fYAmIYB8bBQvruA9E" name="Page-1">
        <mxGraphModel dx="1054" dy="1754" grid="1" gridSize="10" guides="1" tooltips="1" connect="1" arrows="1" fold="1" page="1" pageScale="1" pageWidth="850" pageHeight="1100" math="0" shadow="0">
            <root>
                <mxCell id="0"/>
                <mxCell id="1" parent="0"/>
                <mxCell id="4" value="" style="rounded=0;whiteSpace=wrap;html=1;fillColor=#99FF99;opacity=30;" vertex="1" parent="1">
                    <mxGeometry x="580" y="210" width="230" height="340" as="geometry"/>
                </mxCell>
                <mxCell id="5" value="" style="rounded=0;whiteSpace=wrap;html=1;fillColor=#CC99FF;opacity=30;" vertex="1" parent="1">
                    <mxGeometry x="50" y="211" width="230" height="338" as="geometry"/>
                </mxCell>
                <mxCell id="6" value="Home" style="rounded=0;whiteSpace=wrap;html=1;fillColor=#CC99FF;opacity=30;" vertex="1" parent="1">
                    <mxGeometry x="40" y="-10" width="120" height="60" as="geometry"/>
                </mxCell>
                <mxCell id="7" value="Team" style="rounded=0;whiteSpace=wrap;html=1;fillColor=#CC99FF;opacity=30;" vertex="1" parent="1">
                    <mxGeometry x="320" y="-10" width="120" height="60" as="geometry"/>
                </mxCell>
                <mxCell id="8" value="About" style="rounded=0;whiteSpace=wrap;html=1;fillColor=#CC99FF;opacity=30;" vertex="1" parent="1">
                    <mxGeometry x="180" y="-10" width="120" height="60" as="geometry"/>
                </mxCell>
            </root>
        </mxGraphModel>
    </diagram>
</mxfile>